<?xml version="1.0" encoding="utf-8"?>
<!-- Generator: Adobe Illustrator 23.0.1, SVG Export Plug-In . SVG Version: 6.00 Build 0)  -->
<svg version="1.1" id="图层_1" xmlns="http://www.w3.org/2000/svg" xmlns:xlink="http://www.w3.org/1999/xlink" x="0px" y="0px"
	 viewBox="0 0 719 259" style="enable-background:new 0 0 719 259;" xml:space="preserve">
<style type="text/css">
	.st0{display:none;}
	.st1{display:inline;}
	.st2{fill:#FFFFFF;}
	.st3{display:inline;fill:#FB5353;}
</style>
<g class="st0">
	<g class="st1">
		<rect x="194" y="93" width="10" height="6"/>
	</g>
	<g class="st1">
		<rect x="191" y="101" width="16" height="6"/>
	</g>
	<g class="st1">
		<rect x="211" y="93" width="24" height="6"/>
	</g>
	<g class="st1">
		<rect x="211" y="113" width="24" height="6"/>
	</g>
	<g class="st1">
		<rect x="212" y="122" transform="matrix(0.7071 -0.7071 0.7071 0.7071 -22.7815 195.0021)" width="24" height="6"/>
	</g>
	<g class="st1">
		<rect x="229" y="104" width="9" height="6"/>
	</g>
	<g class="st1">
		<rect x="229" y="96" width="6" height="14"/>
	</g>
	<g class="st1">
		<rect x="211" y="96" width="6" height="14"/>
	</g>
	<g class="st1">
		<rect x="196" y="101" width="6" height="32"/>
	</g>
	<g class="st1">
		<rect x="193" y="129" transform="matrix(0.9659 -0.2588 0.2588 0.9659 -27.383 55.9981)" width="12" height="6"/>
	</g>
	<g class="st1">
		<rect x="226.5" y="119.6" transform="matrix(0.7071 -0.7071 0.7071 0.7071 -24.3501 200.1988)" width="6" height="19.8"/>
	</g>
	
		<image style="display:inline;overflow:visible;enable-background:new    ;" width="826" height="281" xlink:href="64CC46BD.jpeg"  transform="matrix(1 0 0 1 -191 -51)">
	</image>
</g>
<g>
	<g>
		<g>
			<path class="st2" d="M458.1,126.5c18,0.9,35.3,1.6,52.7,2.6c2.3,0.1,4.5,1,6.7,1.8c8.8,3.2,13.9,10.1,14.3,18.5
				c0.5,10.5-2.8,18.9-12.9,23.5c-0.8,0.4-1.5,0.9-2.8,1.7c1.7,0.8,2.8,1.5,4,1.9c11,3.4,14.6,13.3,13.8,23.8
				c-1.4,17.3-15.3,24.3-28.4,25.4c-14.7,1.2-29.6,0.7-44.4,1c-3.3,0.1-2.9-2.2-2.9-4.2c0-18.2,0-36.4,0-54.6c0-11.9,0-23.9,0-35.8
				C458.1,130.6,458.1,129.2,458.1,126.5z M491.8,184.3c0,0.1,0,0.3-0.1,0.4c-1.5,0-3.1,0.1-4.7,0c-2.1-0.1-3.2,0.8-3.2,2.9
				c0,5.4-0.1,10.9,0.1,16.3c0,1,1.5,2.8,2.3,2.8c4.6,0,9.3,0.1,13.8-0.9c4.8-1,7.1-4.7,7.2-9.8c0.1-4.8-2.2-8.6-6.9-10.1
				C497.7,185,494.7,184.8,491.8,184.3z M483.3,156.2c0.2,0,0.4,0.1,0.6,0.1c0,2.3-0.2,4.7,0.1,7c0.1,1,1.4,2.7,2,2.6
				c4.8-0.3,9.8-0.5,14.4-1.7c1.9-0.5,3.8-3.2,4.5-5.3c1.9-5.6-0.6-10.3-6.5-11.5c-4.4-0.9-9-0.4-13.5-0.5
				C484.4,150,483.8,153.1,483.3,156.2z"/>
			<path class="st2" d="M546.8,188.2c1.5-6.5,2.1-13.4,4.7-19.5c6.8-16.2,22.9-21,38-19.9c12.1,0.9,22.7,5.7,28.7,16.8
				c8.4,15.6,8.5,31.9-0.7,47.1c-8.1,13.5-21.7,16.2-36.4,15.2c-20.2-1.4-34-17.5-33.3-39.6C547.5,188.4,547.1,188.3,546.8,188.2z
				 M598.3,189.4c-0.5-4.5-0.8-7.8-1.3-11.1c-0.2-1.1-0.5-2.3-0.9-3.4c-1.7-4.7-5.2-7.3-9.9-7.4c-5.1-0.1-8.7,2.1-10.5,7.1
				c-3.2,9.3-3.2,18.6,0.1,27.8c1.8,5.1,5,7.1,10.4,7c4.9-0.1,8.4-2.3,9.7-7.3C597.2,197.6,597.6,193,598.3,189.4z"/>
			<path class="st2" d="M688.6,149.5c0,6.4,0,12.3,0,18.9c-4.6,0-9.2,0.1-13.8-0.1c-3.7-0.2-5.1,1.2-5,5c0.2,8.6,0,17.1,0.1,25.7
				c0,6.8,2.4,9.1,9.3,8.9c3.4-0.1,6.9-0.8,10.9-1.3c0,5.4,0.1,10.8-0.1,16.2c0,0.8-1.3,1.9-2.3,2.3c-9.3,3.4-18.9,4.4-28.6,1.9
				c-8.3-2.1-12.8-8.1-13.7-16.1c-1-7.9-0.8-16-1-24.1c-0.1-4.7-0.1-9.3,0-14c0-3-1-4.5-4.3-4.4c-1.6,0-4.5-0.8-4.6-1.4
				c-0.1-3.1,0.5-6.2,0.9-9.3c0-0.2,0.4-0.4,0.6-0.5c8.7-4.1,12.7-11.7,15.5-20.3c0.7-2.2,2-3.1,4.3-3c3.1,0.1,6.2,0.2,9.3,0
				c3.2-0.3,4.1,1.1,3.9,4.1c-0.2,2.7,0,5.4,0,8.2c-0.1,2.5,1,3.5,3.5,3.4C678.3,149.4,683.3,149.5,688.6,149.5z"/>
		</g>
	</g>
	<g>
		<path class="st2" d="M173.4,185.9c5.4-6.3,10.6-11.5,14.8-17.3c9.8-13.7,21.8-26.5,19.8-45.6c-0.6-5.4-1.8-6.9-7.1-6.9
			c-28.3,0.2-56.6,0.1-84.9,0.1c-2.4,0-4.8-0.5-8.3-0.9c1.8-1.9,2.5-2.8,3.3-3.5c12.6-11.7,21.9-25.1,22.7-43
			c0.2-3.9,2.8-4.5,5.8-4.5c8.1,0,16.1,0.1,24.2-0.1c5-0.1,6.6,2.2,6.5,6.9c-0.2,5.4-0.1,10.9,0,16.3c0.1,9.8,4.7,16,14.4,16.9
			c9.8,1,19.8,0.4,29.6,0.3c1,0,2.7-1.1,2.9-2c1.6-6.4,2.9-12.9,4.4-20c-3.9,0-6.7,0-9.4,0c-2.8,0-5.6,0-8.4-0.3
			c-6.5-0.5-9.1-3.1-9.2-9.6c-0.1-7.7,0-15.4,0-23.1c0-7.5,0-7.5-7.2-7.5c-22.7,0-45.4,0-68.1,0c-12.1,0-10.7-1.5-10.4,10.3
			c0.3,16.1-5.3,29.3-17.7,39.5c-0.8,0.7-1.4,1.6-2.3,2.6c6.3,6.6,12.3,13.1,18.5,19.7c-1.3,0.9-1.8,1.3-2.3,1.5
			c-3.6,0.9-8.9,0.6-10.4,2.8c-1.8,2.7-0.6,7.6-0.6,11.5c0,8.1,0,8.4,7.4,8.4c0.3,0,0.5,0,0.8,0c3.8,0,17.3,0.6,17.3,0.6h58.5
			c-1,2.3-1.3,4.1-2.3,5.2c-7.1,8.4-14.2,16.8-21.5,24.9c-0.2,0.2-0.4,0.4-0.7,0.6c-8.1,8.1-26.2,17.1-26.2,17.1l-0.4,0
			c-14.8,8.3-31.1,12.8-47.8,16.9c4,6.9,8.1,13,11.3,19.4c1.9,4,4.1,4.3,7.9,3.3c16.5-4.6,32.4-10.7,46.9-19.9
			c4.3-2.7,7.3-2.1,11.7-0.1c15,6.7,30.3,12.7,45.6,18.7c1.8,0.7,5.6,0.3,6.4-1c4.6-7.4,8.5-15.2,12.9-23.3
			C205.1,197.9,189.3,193.8,173.4,185.9z"/>
		<path class="st2" d="M346.8,174.2c0-15.9-0.1-31.9,0.1-47.8c0.1-5.3-1.7-7.4-7.1-7.3c-12.5,0.3-25.1-0.1-37.7,0.2
			c-4.4,0.1-6.1-1.3-5.8-5.8c0.3-4.5,0.3-9,0-13.5c-0.2-4,1.3-5.2,5.2-5.2c12.7,0.2,25.5-0.1,38.2,0.2c5.4,0.1,7.2-1.9,7.1-7.2
			c-0.3-14.8-0.1-29.6-0.1-44.4c0-9,0-9,8.7-9c4.3,0,8.6,0.3,12.9-0.1c4.6-0.3,6.2,1.2,6.1,6c-0.3,15.9,0.1,31.9-0.2,47.8
			c-0.1,5.1,1.6,7,6.8,6.9c12.9-0.3,25.9,0,38.8-0.1c3.9-0.1,5.4,1.2,5.2,5.2c-0.3,4.7-0.3,9.4,0,14.1c0.2,4-1.4,5.3-5.2,5.2
			c-11.6-0.2-23.2-0.1-34.9-0.1c-10.6,0-10.6,0-10.6,10.3c0,30.5-0.1,61.1,0.1,91.6c0,5.2-1.1,7.6-6.8,7c-4.6-0.5-9.4-0.4-14,0
			c-5.3,0.5-7.2-1.3-7.1-6.8C347,205.7,346.8,189.9,346.8,174.2z"/>
		<path class="st2" d="M276.2,100.8c0,26.3,0,51.8,0,79.1c10-6.4,18.6-11.8,27.9-17.8c1,8.7,2.1,16.4,2.6,24.1
			c0.1,1.6-1.3,3.9-2.7,4.9c-14.5,10.5-29.2,20.9-44.6,31.8c-3.5-4.7-7.6-10-11.4-15.4c-0.6-0.9,0.2-2.8,0.4-4.2
			c0.9-4.7,2.7-9.4,2.7-14.1c0.3-19.3,0-38.6,0.2-57.9c0.1-4.8-1.3-6.6-6.4-6.6c-14,0-14-0.2-14-14.2c0-11.2-1.3-9.7,10-9.7
			C252.4,100.7,263.7,100.8,276.2,100.8z"/>
		<path class="st2" d="M75,173.2c4.7-5.7,9.5-11.4,15-18c2,10,3.8,18,5.2,26c0.3,1.4-0.4,3.5-1.4,4.5c-12.2,11.6-24.6,22.9-37.7,35
			c-4.1-6-8.2-11.7-12-17.6c-0.6-0.9,0.2-2.8,0.4-4.2c1-4.7,2.7-9.4,2.8-14.2c0.3-17.2,0-34.5,0.2-51.7c0.1-5-1.6-7-6.8-7
			c-13.2,0-13.3-0.2-13.2-13.5c0.1-13.6-1.6-11.6,11.5-11.7c9-0.1,18,0.2,27-0.1c4.5-0.2,5.8,1.4,5.8,5.8c-0.2,19.7-0.1,39.4-0.1,59
			c0,2.1,0.4,4.3,0.6,6.4C73.3,172.3,74.1,172.8,75,173.2z"/>
		<path class="st2" d="M289.4,69.5c-7.4,4.5-14.2,8.7-21.2,12.6c-1,0.5-3.7-0.3-4.4-1.3c-6.6-10-12.9-20.1-19.1-30.4
			c-0.6-1,0.1-4,1.2-4.7c5-3.3,10.2-6.2,15.6-8.8c1.1-0.6,3.9,0,4.6,1C273.9,48,281.4,58.5,289.4,69.5z"/>
		<path class="st2" d="M86,68.2c-7.4,5-14.1,9.7-20.9,14c-0.8,0.5-3.2-0.4-3.9-1.3c-7.4-10.5-14.7-21.2-22.5-32.5
			c5.8-3.8,11.8-7.9,17.9-11.6c0.9-0.5,3.4,0.1,4.2,1.1C69.1,47.6,77.3,57.5,86,68.2z"/>
	</g>
	
		<image style="display:none;overflow:visible;" width="826" height="281" xlink:href="64CC46BF.jpeg"  transform="matrix(1 0 0 1 -54 -370)">
	</image>
</g>
<g id="图层_3" class="st0">
	<path class="st3" d="M163,180c0,0,13.2-7.9,17-10s14-11,14-11"/>
</g>
</svg>
