<?xml version="1.0" encoding="UTF-8"?>
<svg width="233px" height="123px" viewBox="0 0 233 123" version="1.1" xmlns="http://www.w3.org/2000/svg" xmlns:xlink="http://www.w3.org/1999/xlink">
    <title>ui05@1x</title>
    <g id="页面-1" stroke="none" stroke-width="1" fill="none" fill-rule="evenodd">
        <g id="画板备份-15" transform="translate(-58.000000, -119.000000)" fill="#FA4616" fill-rule="nonzero">
            <path d="M290.499583,119 L290.499583,241.499583 L58,241.499583 L58,119 L290.499583,119 Z M277.781703,131.71788 L180.71788,131.71788 L180.71788,228.721713 L277.781703,228.721713 L277.781703,131.71788 Z M94.353941,150.614731 L81.7560407,150.614731 L81.7560407,187.628562 C81.7560407,204.545742 91.0544909,214.564073 106.771871,214.564073 C122.969172,214.564073 132.267622,204.545742 132.267622,187.628562 L132.267622,150.614731 L119.549742,150.614731 L119.549742,187.628562 C119.549742,197.166972 115.410432,202.566072 107.071821,202.566072 C98.2532911,202.566072 94.353941,196.927012 94.353941,187.628562 L94.353941,150.614731 Z M155.003833,164.052491 L142.285952,164.052491 L142.285952,213.844193 L155.003833,213.844193 L155.003833,164.052491 Z M207.173546,152.5 C219.265729,152.5 226.954628,162.212975 226.954628,180.607724 C226.954628,198.750988 219.212545,208.5 207.173546,208.5 C195.161704,208.5 187.5,198.774083 187.5,180.607724 C187.5,162.189786 195.108932,152.5 207.173546,152.5 Z M267.811606,153.684959 L267.811606,164.764228 L245.806,164.764 L245.52,170.91 L245.730624,170.897168 C246.029094,170.878702 246.304669,170.8637 246.568916,170.851758 L247.339233,170.824706 C247.46581,170.821593 247.592445,170.819144 247.720585,170.817309 L248.110963,170.813595 L248.353131,170.813008 C262.342194,170.813008 270.5,177.496354 270.5,188.686992 C270.5,200.955679 262.3153,208.5 247.277773,208.5 C242.793205,208.5 237.908172,207.772891 234.195968,206.644615 L233.697176,206.488303 L232.658408,206.152632 L232.658408,193.690972 L234.830166,194.778747 C238.18406,196.458622 242.903419,197.313008 246.525023,197.313008 C254.03859,197.313008 258.359459,194.402944 258.359459,189.010163 C258.359459,184.452019 254.084297,181.784553 246.309951,181.784553 C242.243172,181.784553 239.667435,182.093825 235.812556,182.896937 L235.118441,183.043827 L233.218102,183.451754 L234.55224,153.684959 L267.811606,153.684959 Z M207.173546,163.363821 C202.442228,163.363821 199.425469,168.818211 199.425469,180.5 C199.425469,192.041628 202.492121,197.636179 207.173546,197.636179 C211.891231,197.636179 215.029159,192.003192 215.029159,180.5 C215.029159,179.383491 215.000771,178.323541 214.945236,177.319569 L214.891015,176.472716 L214.823671,175.6532 C214.060575,167.325824 211.223361,163.363821 207.173546,163.363821 Z M148.644893,142.696051 C144.205632,142.696051 140.786202,145.875521 140.786202,150.554741 C140.846192,154.994001 144.265622,158.173471 148.644893,158.173471 C153.084153,158.173471 156.503583,154.994001 156.503583,150.554741 C156.503583,145.875521 153.324113,142.696051 148.644893,142.696051 Z" id="ui05"></path>
        </g>
    </g>
</svg>